# xmcd CD database file
#
# Track frame offsets:
#	150
#	32647
#	54129
#	75665
#	100294
#	129217
#	161859
#	189865
#	211581
#	234282
#	255902
#	271414
#	285715
#	299770
#	314743
#
# Disc length: 4558 seconds
#
# Revision: 0
# Processed by: cddbd v1.5.2PL0 Copyright (c) Steve Scherf et al.
# Submitted via: CDex 1.51
#
DISCID=cb11cc0f
DTITLE=Ben Webster and art Tatum - Dwn Beat (The Ben Webster-Art Tatum quartet)
DYEAR=1956
DGENRE=Jazz
TTITLE0=01 - All The Things You Are
TTITLE1=02 - Gone With The wind
TTITLE2=03 - Have You Met Miss Jones
TTITLE3=04 - Night and day
TTITLE4=05 - Where Or When
TTITLE5=06 - My Ideal
TTITLE6=07 - My One and Only Love
TTITLE7=08 - Gone With The Wind (alt. 1)
TTITLE8=09 - Have You Met Miss Jones (alt)
TTITLE9=10 - Gone Witrh The Wind (alt. 2)
TTITLE10=11 - My Funny Valentine (BW 1954)
TTITLE11=12 - You'Re Mine, You ! (BW 1954)
TTITLE12=13 - Spohisticated Lady (BW 1954)
TTITLE13=14 - Love'sAway (BW 1954)
TTITLE14=15 - All The Things You Are (AT - 1953)
EXTD=YEAR: 1956
EXTT0=
EXTT1=
EXTT2=
EXTT3=
EXTT4=
EXTT5=
EXTT6=
EXTT7=
EXTT8=
EXTT9=
EXTT10=
EXTT11=
EXTT12=
EXTT13=
EXTT14=
PLAYORDER=
